HIERARCHY
ROOT Hips
{
	OFFSET -3.958830 18.904000 13.208200
	CHANNELS 6 Xposition Yposition Zposition Zrotation Yrotation Xrotation 
	JOINT LHipJoint
	{
		OFFSET 0.000000 0.000000 0.000000
		CHANNELS 3 Zrotation Yrotation Xrotation
		JOINT LeftUpLeg
		{
			OFFSET 1.800000 -1.400000 0.085000
			CHANNELS 3 Zrotation Yrotation Xrotation
			JOINT LeftLeg
			{
				OFFSET 2.215000 -6.000000 0.000000
				CHANNELS 3 Zrotation Yrotation Xrotation
				JOINT LeftFoot
				{
					OFFSET 2.500000 -6.900000 0.000000
					CHANNELS 3 Zrotation Yrotation Xrotation
					JOINT LeftToeBase
					{
						OFFSET 0.200000 -0.500000 1.950000
						CHANNELS 3 Zrotation Yrotation Xrotation
						End Site
						{
							OFFSET 0.000000 0.000000 0.000000
						}
					}
				}
			}
		}
	}
	JOINT RHipJoint
	{
		OFFSET 0.000000 0.000000 0.000000
		CHANNELS 3 Zrotation Yrotation Xrotation
		JOINT RightUpLeg
		{
			OFFSET -1.800000 -1.400000 0.085000
			CHANNELS 3 Zrotation Yrotation Xrotation
			JOINT RightLeg
			{
				OFFSET -2.215000 -6.000000 0.000000
				CHANNELS 3 Zrotation Yrotation Xrotation
				JOINT RightFoot
				{
					OFFSET -2.500000 -6.900000 0.000000
					CHANNELS 3 Zrotation Yrotation Xrotation
					JOINT RightToeBase
					{
						OFFSET -0.200000 -0.500000 1.950000
						CHANNELS 3 Zrotation Yrotation Xrotation
						End Site
						{
							OFFSET 0.000000 0.000000 0.000000
						}
					}
				}
			}
		}
	}
	JOINT LowerBack
	{
		OFFSET 0.000000 0.000000 0.000000
		CHANNELS 3 Zrotation Yrotation Xrotation
		JOINT Spine
		{
			OFFSET -0.087000 1.940000 -0.288900
			CHANNELS 3 Zrotation Yrotation Xrotation
			JOINT Spine1
			{
				OFFSET 0.000000 1.950000 0.060000
				CHANNELS 3 Zrotation Yrotation Xrotation
				JOINT Neck
				{
					OFFSET 0.000000 0.000000 0.000000
					CHANNELS 3 Zrotation Yrotation Xrotation
					JOINT Neck1
					{
						OFFSET 0.000000 1.600000 0.340000
						CHANNELS 3 Zrotation Yrotation Xrotation
						JOINT Head
						{
							OFFSET 0.000000 1.667000 -0.240000
							CHANNELS 3 Zrotation Yrotation Xrotation
							End Site
							{
								OFFSET 0.000000 0.000000 0.000000
							}
						}
					}
				}
				JOINT LeftShoulder
				{
					OFFSET 0.000000 0.000000 0.000000
					CHANNELS 3 Zrotation Yrotation Xrotation
					JOINT LeftArm
					{
						OFFSET 2.700000 1.550000 -0.730000
						CHANNELS 3 Zrotation Yrotation Xrotation
						JOINT LeftForeArm
						{
							OFFSET 5.450000 0.000000 0.000000
							CHANNELS 3 Zrotation Yrotation Xrotation
							JOINT LeftHand
							{
								OFFSET 3.450000 0.000000 0.000000
								CHANNELS 3 Zrotation Yrotation Xrotation
								JOINT LeftHandIndex1
								{
									OFFSET 0.750000 0.000000 0.000000
									CHANNELS 3 Zrotation Yrotation Xrotation
									End Site
									{
										OFFSET 0.000000 0.000000 0.000000
									}
								}
							}
						}
					}
				}
				JOINT RightShoulder
				{
					OFFSET 0.000000 0.000000 0.000000
					CHANNELS 3 Zrotation Yrotation Xrotation
					JOINT RightArm
					{
						OFFSET -2.700000 1.550000 -0.730000
						CHANNELS 3 Zrotation Yrotation Xrotation
						JOINT RightForeArm
						{
							OFFSET -5.450000 0.000000 0.000000
							CHANNELS 3 Zrotation Yrotation Xrotation
							JOINT RightHand
							{
								OFFSET -3.450000 0.000000 0.000000
								CHANNELS 3 Zrotation Yrotation Xrotation
								JOINT RightHandIndex1
								{
									OFFSET -0.750000 0.000000 0.000000
									CHANNELS 3 Zrotation Yrotation Xrotation
									End Site
									{
										OFFSET 0.000000 0.000000 0.000000
									}
								}
							}
						}
					}
				}
			}
		}
	}
}
MOTION
Frames: 13
Frame Time: 0.016667
-0.427280 16.439420 -0.583780 0.619636 -1.679857 1.423082 -15.168073 14.076579 2.716372 5.889437 -2.282672 -26.665114 14.416495 1.081968 21.178902 -0.248787 3.344033 3.353252 0.282410 0.205970 0.478120 18.257043 -10.678869 2.704023 0.573571 1.211088 -12.913275 1.761673 -3.560311 14.478379 -0.076976 -2.962343 3.247866 0.138970 0.202570 0.255970 -3.530947 -3.336765 -6.910044 5.968199 0.876783 11.290214 -2.426812 2.743637 4.450092 -1.721301 -11.451846 -12.155200 -30.897606 31.009267 19.414043 -10.723780 29.093300 -4.107780 -7.711650 -2.841712 5.746779 -31.623146 -0.986091 -1.720291 -47.037122 -32.605777 11.100183 -3.822178 3.598973 0.095850 0.276900 0.056850 0.085690 11.902363 10.512643 5.322635 31.026303 4.219384 -2.875695 37.477483 22.358809 4.759749 2.566363 -1.747848 -0.101590 -0.032670 -0.210080 -0.101820 
-0.420600 16.434500 -0.572430 0.617581 0.261431 1.505840 -15.175603 14.090399 2.698582 5.756825 -2.293322 -26.214196 13.826190 1.206278 21.296555 -0.259403 3.351107 3.358992 0.279330 0.200140 0.462020 18.244368 -10.683878 2.708371 0.313227 1.180479 -12.701263 2.335962 -3.706793 14.379540 -0.077345 -3.009825 3.239493 0.141120 0.219830 0.253120 -3.536138 -3.348543 -6.909575 6.045173 0.644800 11.293978 -2.446617 2.474588 4.031695 -1.610846 -11.530161 -11.958092 -30.767678 31.046566 19.148486 -10.092400 28.837230 -3.689550 -9.383527 -2.844811 5.481041 -30.910504 0.039156 -1.968839 -46.977310 -30.256698 9.997103 -3.839177 3.586398 0.095250 0.283340 0.042710 0.091940 13.382718 10.551494 5.368349 29.700278 3.333642 -2.952940 40.430065 22.575014 5.251657 2.550555 -1.788620 -0.109450 -0.025700 -0.203130 -0.098810 
-0.414620 16.434310 -0.564090 0.596944 2.675933 1.591574 -15.196805 14.104818 2.716734 5.551477 -2.435756 -26.270239 13.227237 1.401309 23.186725 -0.224412 3.546881 3.284891 0.262010 0.180680 0.434740 18.221404 -10.662123 2.709517 0.108856 1.174166 -12.608816 3.013079 -3.889217 14.453568 -0.075218 -3.048316 3.228537 0.125660 0.229780 0.249740 -3.519674 -3.414085 -6.933977 6.075076 0.363286 11.437329 -2.489605 2.156822 3.545833 -1.371174 -11.537959 -11.875516 -30.422058 30.703505 19.131031 -9.396380 28.327970 -3.120200 -10.646190 -2.866391 5.274336 -31.273150 0.644577 -2.345780 -45.782900 -28.216624 8.712716 -3.843796 3.571831 0.091080 0.279090 0.031170 0.089930 14.247198 10.519147 5.502099 30.277982 2.370158 -3.413351 41.621308 22.904904 5.429925 2.551283 -1.803082 -0.107000 -0.028550 -0.188500 -0.089530 
-0.406660 16.436540 -0.561790 0.636666 5.434310 1.692535 -15.231990 14.101077 2.788204 5.316479 -2.746966 -26.808318 12.532122 1.716318 26.535733 -0.160479 3.952424 3.135748 0.242140 0.150600 0.405730 18.191082 -10.616322 2.692840 0.006207 1.168919 -12.629346 3.337585 -4.003093 14.626267 -0.070997 -3.056278 3.237080 0.101740 0.238090 0.241790 -3.482695 -3.515352 -6.982674 6.046580 0.148503 11.658140 -2.635107 1.910173 3.058123 -0.990284 -11.410371 -11.872149 -29.779385 30.098989 19.565004 -8.702430 27.712510 -2.512670 -11.056955 -2.700802 5.077271 -33.001719 0.515351 -2.744240 -43.430707 -26.938354 7.536859 -3.832438 3.537235 0.102290 0.267790 0.023310 0.094010 13.987340 10.190210 5.632752 33.049780 1.531129 -4.205448 41.289014 23.302492 5.341407 2.554164 -1.788748 -0.111050 -0.026550 -0.176500 -0.083120 
-0.396660 16.435510 -0.559520 0.677130 8.099916 2.009177 -15.265076 14.030824 2.903256 5.231797 -3.178824 -27.654188 11.300423 2.350295 30.753885 -0.066887 4.543475 2.913276 0.242030 0.143780 0.393050 18.174330 -10.554590 2.663825 -0.028636 1.199703 -12.868040 3.518918 -4.042274 14.681210 -0.068967 -3.032414 3.244428 0.090280 0.233300 0.239040 -3.466053 -3.551757 -7.037919 6.095551 0.089220 11.670622 -2.822950 1.807274 2.409463 -0.752361 -11.299590 -11.652349 -29.099996 29.365551 19.911304 -7.918360 26.815980 -2.138900 -11.280588 -2.024439 4.702317 -35.629230 -0.004177 -3.041052 -40.249574 -25.963601 6.438705 -3.817080 3.508851 0.108660 0.250120 0.023630 0.097900 13.751449 9.385933 5.534701 36.548439 0.876792 -4.936699 39.984821 23.125039 4.933815 2.564913 -1.774606 -0.102950 -0.032180 -0.174960 -0.075400 
-0.380750 16.437000 -0.556790 0.514414 10.757527 2.371459 -15.282828 13.909534 3.034082 5.439096 -3.598063 -28.414623 9.384943 3.395265 34.850152 0.045435 5.206445 2.658577 0.254920 0.156960 0.389610 18.178826 -10.495957 2.635499 0.160849 1.220684 -13.063800 3.492268 -4.017798 14.666832 -0.075315 -2.986899 3.256684 0.084820 0.207160 0.231460 -3.499809 -3.504858 -7.107139 6.676958 0.099274 11.686395 -3.198190 1.813854 1.492145 -0.531558 -11.237383 -11.281400 -28.677412 28.438777 20.498902 -7.267200 25.615710 -2.173920 -11.545626 -0.851200 4.111704 -38.748230 -0.790218 -3.174177 -36.712583 -25.235400 5.520421 -3.789740 3.474704 0.118180 0.216940 0.036720 0.098450 13.497603 8.119364 5.262169 40.650897 0.325725 -5.646956 37.694611 22.600024 4.336773 2.585486 -1.744386 -0.083410 -0.040000 -0.180280 -0.067280 
-0.367530 16.432940 -0.552450 0.653699 13.310532 2.979229 -15.328899 13.782375 3.205733 5.521070 -4.043770 -29.099603 6.947899 4.841911 38.505470 0.178922 5.925229 2.402296 0.248510 0.146630 0.370320 18.155011 -10.420227 2.584093 0.191774 1.287823 -13.502323 3.280531 -3.948967 14.850298 -0.063681 -2.933384 3.278635 0.070560 0.199820 0.220650 -3.445061 -3.502925 -7.182327 6.380697 0.410741 11.427787 -2.921179 1.972957 0.401618 -0.360541 -11.164607 -10.697978 -27.979774 27.366823 21.079162 -6.574290 24.431240 -1.682390 -12.231949 0.709723 3.375656 -42.100270 -1.247979 -3.383222 -33.170525 -24.854801 4.771624 -3.774711 3.436488 0.120580 0.196180 0.035370 0.103740 13.819391 6.646222 4.887979 44.268755 -0.254261 -6.207329 35.151112 21.696946 3.678774 2.611862 -1.710107 -0.076440 -0.045300 -0.181450 -0.056380 
-0.348940 16.418770 -0.545600 0.728608 16.003210 3.874619 -15.378555 13.591369 3.410927 5.694735 -4.554134 -30.024823 4.206712 6.605401 41.776070 0.345036 6.708810 2.142871 0.227870 0.118810 0.336240 18.139600 -10.322204 2.522662 0.265217 1.434191 -14.228958 3.185634 -3.898810 15.124496 -0.034827 -2.894917 3.305145 0.047120 0.218850 0.216860 -3.390614 -3.449155 -7.254860 6.073413 0.764578 10.753991 -2.559907 2.106757 -0.852575 -0.226110 -11.024054 -9.800326 -26.617639 26.116669 21.354279 -5.726470 23.287430 -0.491400 -13.408482 2.655292 2.410329 -45.008733 -1.410493 -3.568451 -30.116407 -24.645178 4.238058 -3.788366 3.414573 0.098210 0.201610 0.010050 0.112960 14.676179 4.750790 4.305531 47.529511 -0.873083 -6.587084 32.316172 20.474579 2.966112 2.637824 -1.684337 -0.069800 -0.058610 -0.177720 -0.040090 
-0.323340 16.398530 -0.539220 0.727532 18.956866 4.816624 -15.424723 13.389290 3.597619 5.832959 -4.997975 -30.728671 1.362861 8.442863 44.000621 0.508453 7.408379 1.928225 0.177280 0.057570 0.282860 18.127811 -10.235905 2.460111 0.261939 1.627111 -15.100516 3.204400 -3.909311 15.646283 0.007092 -2.886925 3.324179 0.009610 0.255730 0.210350 -3.345571 -3.350628 -7.304584 5.870144 1.115577 9.796152 -2.224343 2.218900 -1.963018 0.014480 -10.778697 -8.820201 -24.851162 24.641994 21.603161 -5.063420 22.205890 1.131190 -14.883539 4.546551 1.388829 -47.714464 -1.384828 -3.828851 -27.056831 -24.354058 3.689097 -3.821973 3.380110 0.067940 0.222030 -0.031690 0.116740 15.602736 2.846083 3.700836 50.750362 -1.431383 -7.003142 29.046503 19.236903 2.231913 2.667877 -1.646564 -0.077150 -0.071040 -0.159590 -0.024190 
-0.283340 16.380040 -0.539970 0.557621 22.436245 5.556286 -15.452450 13.193381 3.754374 5.824933 -5.434020 -31.140906 -1.184184 10.028141 45.397150 0.666173 7.963444 1.771502 0.127060 -0.004200 0.233360 18.127294 -10.179375 2.409851 0.109894 1.844474 -15.981120 3.604429 -4.080828 16.520161 0.034544 -2.930010 3.323545 -0.034120 0.287100 0.205720 -3.358463 -3.198823 -7.353547 6.250458 1.302117 9.019371 -2.285389 2.223740 -3.265658 0.432959 -10.426137 -7.746804 -22.997351 23.030851 22.098007 -4.553060 21.105830 2.656410 -17.117408 6.403722 0.126131 -49.626272 -1.303429 -3.984808 -24.403017 -23.394043 3.133585 -3.853304 3.336791 0.042940 0.236960 -0.064760 0.121780 16.850708 0.778253 3.050674 53.657750 -2.168713 -7.534174 25.365330 18.269737 1.553489 2.704348 -1.595105 -0.080390 -0.084680 -0.145330 -0.007080 
-0.234390 16.363730 -0.544120 0.013368 26.418094 5.950033 -15.462958 13.041952 3.845399 5.825561 -5.733281 -31.157397 -3.177667 11.151031 45.938196 0.778775 8.309911 1.684520 0.088210 -0.063590 0.207350 18.135304 -10.150679 2.394547 0.278982 2.060141 -16.717086 3.897036 -4.258231 17.483076 0.046222 -2.977914 3.323053 -0.078710 0.299180 0.199510 -3.431987 -3.033793 -7.397518 7.297466 1.294838 8.503654 -2.461476 2.112774 -4.819803 0.934108 -10.095221 -6.586835 -21.393137 21.221150 22.624592 -4.603570 19.960190 3.535920 -19.845652 8.436438 -1.321005 -51.125415 -1.003877 -4.111675 -21.978923 -21.866249 2.553680 -3.872454 3.270486 0.039840 0.238370 -0.082240 0.123880 18.345582 -1.536977 2.326508 55.872885 -3.034235 -8.121644 21.511156 17.663495 0.992347 2.738225 -1.525488 -0.085500 -0.094320 -0.139120 -0.001450 
-0.183510 16.350770 -0.551330 -0.390614 30.834171 6.160015 -15.478521 12.965365 3.873647 5.454016 -5.949675 -30.624576 -4.559926 11.753286 45.797214 0.855960 8.431198 1.669244 0.051080 -0.117810 0.184540 18.124368 -10.159081 2.393452 0.458462 2.247299 -17.369201 3.912184 -4.404363 18.707862 0.053287 -3.043036 3.309813 -0.122020 0.301300 0.189830 -3.496687 -2.908805 -7.413826 8.047266 1.120032 8.020588 -2.381260 1.845807 -6.158194 1.352260 -9.701620 -5.579081 -19.827410 19.445775 23.148574 -4.640770 18.812470 4.362930 -22.545352 9.950422 -2.426531 -52.525160 -0.225347 -4.547236 -19.542043 -20.436517 1.963422 -3.875989 3.212854 0.036020 0.232080 -0.095800 0.121980 20.038642 -3.362143 1.694005 57.202338 -3.765809 -8.600829 18.110698 17.116016 0.532696 2.775044 -1.466542 -0.087190 -0.108810 -0.135500 0.004420 
-0.132190 16.335700 -0.560640 -0.656362 35.338770 6.423895 -15.488039 12.955479 3.811884 4.774185 -5.919833 -29.603636 -5.325348 11.777603 44.607288 0.865163 8.257292 1.745465 0.018280 -0.162750 0.155820 18.109908 -10.209104 2.411491 0.675642 2.543390 -18.399300 3.494200 -4.509210 20.692286 0.057733 -3.154398 3.272946 -0.156170 0.309020 0.184210 -3.588406 -2.782976 -7.362368 8.686700 0.804282 7.362376 -2.360346 1.417676 -7.297692 1.623346 -9.313887 -4.678041 -18.360426 18.018871 23.102425 -4.444500 17.699300 5.091590 -23.942880 11.707911 -3.244743 -54.598568 0.648675 -4.964046 -17.356148 -19.097355 1.445719 -3.888067 3.165761 0.025190 0.230950 -0.114090 0.121220 20.757441 -5.433114 0.896290 58.874796 -4.046040 -8.831962 15.361288 16.319787 0.161075 2.811752 -1.421170 -0.086740 -0.124480 -0.128240 0.013350 
